<svg xmlns="http://www.w3.org/2000/svg" width="256.3" height="256.3" viewBox="0 0 256.3 256.3"><path fill="#0056cb" d="M132.7 151.5c-.2 0-.4.2-.4.6h-.1c-.3 0-.4.2-.4.5s.1.6.4.6.5-.2.5-.6c.4 0 .6-.2.6-.5a.5.5 0 0 0-.6-.6zm1.5-.8a2.4 2.4 0 0 0-.9.8h.3a2.7 2.7 0 0 0 1.2-.3l.8-.8h-.3a2.3 2.3 0 0 0-1.1.3zm3.1-2.6c-.3 0-.4.2-.4.6h-.2c-.3 0-.4.1-.4.5h-.1c-.3 0-.5.2-.5.6s.2.6.5.6.4-.2.4-.6h.1c.4 0 .5-.2.5-.6h.1a.5.5 0 0 0 .5-.5c0-.4-.2-.6-.5-.6zm23.4-6a10 10 0 0 1-1.3 1.5c.3.5.5.9.8 1l1.2.2a1.9 1.9 0 0 0 1.4-.5 4.3 4.3 0 0 0 1.1-1.2 10.1 10.1 0 0 0 .7-1.5c.3-.5.4-1.2.5-1.2h-3.4c-.2 0-.5 1.1-1 1.7z"/><path d="M128.2 0a128.2 128.2 0 1 0 128.1 128.2A128.2 128.2 0 0 0 128.2 0zm96.1 76a4.2 4.2 0 0 1-1.6.4H219l-5.3 1.2a21.6 21.6 0 0 0-3.7 1.6 13.6 13.6 0 0 0-2.5 2.2 21.4 21.4 0 0 0-1.7 3 17.6 17.6 0 0 0-1.5 3.9c-.5 1.5-1.1 3.2-1.7 5.1l-1.2 3.5a30.5 30.5 0 0 1-1.3 3.2c-.4 1-.9 2.1-1.4 3.1l-1.8 3.3a32.3 32.3 0 0 1-2.7 4.1c-1 1.3-1.9 2.5-3 3.7l-3.1 3.6c-1.1 1.2-2.1 2.5-3.2 3.9a11.1 11.1 0 0 0-1.3 2.7l-1 2.5a7.9 7.9 0 0 1-1.4 2.3 6 6 0 0 1-2.5 1.6l-1.3.5-2.1.7-2 .7-1.4.3a3.3 3.3 0 0 1 .2 2.1 2 2 0 0 1-.9.9l-1.2.6a1.3 1.3 0 0 0-.9 1l-2.3 6.8a3.1 3.1 0 0 1-1 1.5l-1.8.9a7.4 7.4 0 0 1-2.1.1 9.7 9.7 0 0 1-1.8-.1h-.9c-.5 0-.9.2-1.1.1s-.4-.4-.4-.9a.6.6 0 0 1 .1-.4l.2-.3.2-.2a.6.6 0 0 0 .1-.4v-.2a21.1 21.1 0 0 0-3.4 1.6l-3.4 2.1-3.4 2.2a37.9 37.9 0 0 1-3.4 2l-.9.4-1.1.6a4.4 4.4 0 0 0-1 .8 1.6 1.6 0 0 0-.5 1.1.4.4 0 0 0 .1.3v.2l1.8 1.7 1.9 1.7 2.1 1.6a12 12 0 0 0 2.1 1.3l1.8.7 2 .5 1.9.7a5.6 5.6 0 0 1 1.7.9 5.7 5.7 0 0 1 1.3 1.4l1.2 1.5 1.1 1.5a6.4 6.4 0 0 0 1.5 1.3l1.7.6 2.1.6a5.4 5.4 0 0 1 1.8 1.1 2.1 2.1 0 0 1 .7 1.7v.3a.3.3 0 0 0-.1.2l-5.6 1.2a2.9 2.9 0 0 0-1.1.3 2.1 2.1 0 0 1-1.2.3h-.6l-1.1-.7-1.8-1-1.7-1c-.5-.4-.9-.6-1-.8l-.2-.2-.4-.5-.3-.5-.3-.5-2.2-4.5-1.2-.5-1.8-.7-2.2-1-2.1-1-1.8-.8-1.1-.6a13.3 13.3 0 0 1-2.8-1.6 13.9 13.9 0 0 1-2.7-2.1 15.6 15.6 0 0 1-2-2.7 9.4 9.4 0 0 1-1.1-3.2l-.5.2-.6.4-.9.6-1.7 1.2-2.2 1.4-2.1 1.4-1.8 1.1-.9.5-6.1 3.6a23.1 23.1 0 0 0-4.5 3.4 17.8 17.8 0 0 0-3.7 4.5c-.9 1.7-.7 4-2.4 6.7v1.6a8.8 8.8 0 0 0 1.2 4.4 6.9 6.9 0 0 0 2.1 2.6 8.9 8.9 0 0 0 2.7 1.5l2.5.9a7.5 7.5 0 0 1 2 1c.6.5.8 2.1.8 2.1h-13.4a1.4 1.4 0 0 0-.2-.4c-.1-.2-.2-.2-.3-.3h-.5l-.7-.3a2.8 2.8 0 0 1-1.2-1.6 7.1 7.1 0 0 1-.5-2.2 19.5 19.5 0 0 1 .2-2.3c0-.8.3-1.5.3-2.1v-1.4a4.7 4.7 0 0 1 .3-1.8c.2-.8.3-1.7.5-2.7s.5-2.1.8-3.2.6-2.2.8-3.2.5-1.9.7-2.7l.4-1.8a14.4 14.4 0 0 1 1.7-3.9 14 14 0 0 0 4.5-2.6 25.7 25.7 0 0 0 3.3-3.3c1-1.2 2-2.3 2.9-3.5a17.6 17.6 0 0 1 3.5-3.1l1.4-.7 2.1-.8 2.4-1a10.3 10.3 0 0 0 2.1-1.1 7.5 7.5 0 0 0 1.6-1.3 2.5 2.5 0 0 0 .6-1.6v-1.4a1.7 1.7 0 0 0-.6-1.2l-.8-.3-1.2-.5-1.2-.6-.8-.3a9.4 9.4 0 0 1-2-1.2l-2.7-1.9a25.6 25.6 0 0 0-2.5-1.6 3.4 3.4 0 0 0-1.8-.6h-7.9c-6.1 0-12-.1-17.9.1s-11.7.2-17.8.2c-4.4 0-8.7-.1-13-.3a102.3 102.3 0 0 1-12.4-1.4 83.6 83.6 0 0 1-12.2-3 66.2 66.2 0 0 1-11.8-5l-1.5-.8-1.6-1a8 8 0 0 1-1.3-1.3 2.4 2.4 0 0 1-.5-1.6 5.9 5.9 0 0 1 2.1.4l2.4 1 2.2.9 1.5.7 4.7 1.6 5.1 1.5a52.7 52.7 0 0 0 5.2 1 28.5 28.5 0 0 0 4.9.4h25.5l1.3-.2 2.5-.3 3.4-.5 3.7-.7 3.5-.6 2.7-.6 6.9-1.3 7.4-1.6c2.5-.6 5-1.4 7.4-2.2a48.4 48.4 0 0 0 6.6-2.8l3.9-1.8 3.8-1.6 4-1.3a25.9 25.9 0 0 1 4.2-.9l1-.2h3.6l1.1-.2 1.9-.3 3.4-.8 4.1-.9 4-.9c1.3-.3 2.4-1 3.4-1.2s1.6-.7 1.9-.7h6.6c2.7 0 5.4.5 8 .7a68.3 68.3 0 0 0 7.9.6 10.2 10.2 0 0 0 5.1-1.3 18.3 18.3 0 0 0 4.5-3.5 32.5 32.5 0 0 0 4-5 47.1 47.1 0 0 0 3.2-5.8 55.3 55.3 0 0 0 2.6-5.6c.8-1.8 1.3-3.4 1.8-4.8s.8-2.4 1.1-3.5l1-3.2a21 21 0 0 1 1.3-2.6 5.8 5.8 0 0 1 1.8-2 6.8 6.8 0 0 1 2.6-1.6 10.2 10.2 0 0 1 3.8-.8h3.1c.8 1.6 1.8.9 3 1.3a30 30 0 0 1 3.6 1.5 11 11 0 0 1 3 1.9 2.6 2.6 0 0 1 1.3 2.2 2 2 0 0 1-.5 1.4z"/></svg>