<svg xmlns="http://www.w3.org/2000/svg" width="254" height="254" viewBox="0 0 254 254"><path d="M127 0a127 127 0 1 0 127 127A127.1 127.1 0 0 0 127 0zm109.8 115.9h-7.3c-3.1 0-6.1-.1-9.2-.4l-9.1-1-9-.9c-3.1-.3-6.1-.5-9.2-.5a128.5 128.5 0 0 0-16.3 1 77.2 77.2 0 0 0-15.8 3.7l-30.5 11a2.4 2.4 0 0 0-1.2 1.6 17.3 17.3 0 0 0-.8 2.7l-.6 2.9a8.5 8.5 0 0 1-.6 1.9 2.7 2.7 0 0 0 1.3 1.3l2.5 1.2 2.8 1.2 2.8 1.4a7.8 7.8 0 0 1 2.1 1.9 3.5 3.5 0 0 1 .8 2.4 1.7 1.7 0 0 1-.5 1.2 2.7 2.7 0 0 1-1.2.9l-1.6.8-1.6.7a4.3 4.3 0 0 0-1.2 1.1 2.5 2.5 0 0 0-.5 1.5 3.7 3.7 0 0 0 .8 2.5 7.4 7.4 0 0 0 1.9 1.6l2.4 1.3a7.2 7.2 0 0 1 2.1 1.8 14.8 14.8 0 0 1 2.1 3.4 22.9 22.9 0 0 1 1.2 3.7 23.3 23.3 0 0 1 .8 3.8c.2 1.3.1 2.7.3 4l1.3 1.3v7.1h.8l1.1.2.9.2.6.3a5.4 5.4 0 0 0 .1.8c0 .2-.1.5-.1 1a5.6 5.6 0 0 1-.4 1.2l-.6.9a1.1 1.1 0 0 1-.9.3h-5.2c-.2 0-.5-.5-1-.8l-1.5-.8-1.5-.8c-.5-.3-.9-.9-1.2-.9h-6.1a4.8 4.8 0 0 1 .6-2.9 4.4 4.4 0 0 1 1.7-1.6 6.5 6.5 0 0 1 2.1-.6l2.1-.4a3.8 3.8 0 0 0 1.6-.6 1.4 1.4 0 0 0 .7-1.3.8.8 0 0 0-.1-.4v-.3c-.2-.4-.4-1-.8-1.7l-1.3-2.5-1.5-2.4a10 10 0 0 0-1.6-1.8l-1.3-.8-1.8-1-1.8-1a3.3 3.3 0 0 1-1-1.1c-.3-.9-.6-1.8-.9-3a17.3 17.3 0 0 0-1.1-3.2 9 9 0 0 0-1.7-2.6 4.4 4.4 0 0 0-2.9-1 24.7 24.7 0 0 0-6 .8 28 28 0 0 0-5.7 2.2 29.8 29.8 0 0 0-5 3.5 24.4 24.4 0 0 0-3.9 4.6l-.4.2h-.2a.5.5 0 0 1-.2-.4c-.1-.1-.1-.4-.2-.6l-.2-.6a.4.4 0 0 0-.1-.3h-.3a1.6 1.6 0 0 0-1.1.5 4.4 4.4 0 0 0-.8 1.1l-.9 1.4a3.9 3.9 0 0 1-.8 1 5.6 5.6 0 0 1-.7-1.7v-1.6a13.6 13.6 0 0 1 .3-2.9l.9-2.8a27.7 27.7 0 0 0 1-2.6c.2-1 .4-2.7.4-2.7H93c0-1.7.2-1.8.6-2.4a6.5 6.5 0 0 1 1.7-1.6 6.7 6.7 0 0 1 2.1-.9l2.1-.3 3 .2 2.9.5 2.9.4a14.2 14.2 0 0 0 2.9.2h2.3a2.5 2.5 0 0 0-1.6-1.4 10.9 10.9 0 0 0-2.6-.4l-2.7-.2c-.9-.1-1.6.1-2.2-.2l-3.8-2.2h-.3a17.4 17.4 0 0 0-3.2-.1 10.8 10.8 0 0 1-3.1.2 7.3 7.3 0 0 1-3-.7l-2.7-1.4-2.6-1.3a5 5 0 0 0-2.9-.6v6h1.6l1-.4.9-.5a3.5 3.5 0 0 1 .9-.6l.6-.2v2.8l2-.7c0 .1.2.3.2.5a4.3 4.3 0 0 0 .1.5 5.6 5.6 0 0 1-1.3 3.9 22.6 22.6 0 0 1-3.2 2.9 29.2 29.2 0 0 0-4.6-1.3l-4.8-.6v-7.8l-1.7.5-2.1 1-1.9.7c-.5.4-.9.8-.9 1.2v6.9a9.3 9.3 0 0 0 2.9-.3l1.9-.6 1.2-.6a2.4 2.4 0 0 1 1.2-.3h.4l.3.7c.1.4.3.8.4 1.2a9.3 9.3 0 0 1 .4 1.3 8.4 8.4 0 0 1 .2 1 4.6 4.6 0 0 1-.4 1.9 6.7 6.7 0 0 1-1.1 1.8 3.7 3.7 0 0 1-1.5 1.3 3.3 3.3 0 0 1-1.9.6h-1l-3-.5-3.6-.7a10.8 10.8 0 0 1-3.3-1.3 2.5 2.5 0 0 1-1.4-2v-11.7l.9-.9a20.2 20.2 0 0 0 1.9-1.6l2.3-2.1a19.5 19.5 0 0 0 2.4-2.6 20.3 20.3 0 0 0 1.8-2.6 5.6 5.6 0 0 0 .8-2.6 3.9 3.9 0 0 0-1.2-2.8 15.5 15.5 0 0 0-2.8-2 23.3 23.3 0 0 0-3.3-1.4l-2.5-.9-1.3-9.1c-.2-.8-.3-1.7-.6-2.7a13.6 13.6 0 0 0-1.1-2.8 9.1 9.1 0 0 0-1.8-2.1 3.9 3.9 0 0 0-2.6-.9 13.8 13.8 0 0 0-3.7.5 13 13 0 0 0-3.2 1.5l-1.6 1-2.6 1.5-2.9 1.8-3 1.7-2.5 1.7c-.8.4-1.3 1.1-1.7 1.1h-1l-1.7-.2-2.1-.4a3.2 3.2 0 0 1-1.3-.8c-.5-.3-.4-.8-.4-1.3V118c0-.6-.2-.9.1-.9h1.5v-.4c.1-.2.1-.5.2-.8a2.8 2.8 0 0 0 .1-.9 1.1 1.1 0 0 0 .1-.5 6 6 0 0 0-.8-.8l-.9-.5a2.3 2.3 0 0 1-.7-.7 1.7 1.7 0 0 1-.3-1.2 2.7 2.7 0 0 1 .3-1.2 3.9 3.9 0 0 1 .6-1.1c.3-.4.3-.7.6-.9l.9-.3v.7c0 .5.4 1 .5 1.5a1.2 1.2 0 0 0 1.2.7 1.5 1.5 0 0 0 1.1-.4 5.8 5.8 0 0 0 1-1.2 7.6 7.6 0 0 0 .6-1.6c.2-.4.3.3.3-1.4H20.7a1.4 1.4 0 0 1-.9-.5 3.3 3.3 0 0 1-1-.6l-1-.8a1.8 1.8 0 0 1-.4-1.1 4.3 4.3 0 0 1 1.1-3.1 6.8 6.8 0 0 1 2.6-1.8 11.9 11.9 0 0 1 3.2-1l2.9-.9 2.2-.9 3.3-1.5 3.3-1.7a14.1 14.1 0 0 1 2.2-1.1h13.6a7.1 7.1 0 0 1 3.9 1 12.6 12.6 0 0 1 3.1 2.5 20.4 20.4 0 0 1 2.5 3.3l2.3 3.3a20.2 20.2 0 0 0 2.3 2.6 3.9 3.9 0 0 0 2.5 1 1.2 1.2 0 0 0 .8-.4c.1-.3.4-.4.8-.4a4 4 0 0 1 1.5.3l1.5.7 1.6.7a4 4 0 0 0 1.5.3 27.5 27.5 0 0 0 4.1-.2l4.1-.4 4.1-.5a28.2 28.2 0 0 1 4.1-.2 56.4 56.4 0 0 1 7.3.4 36.9 36.9 0 0 1 7.2 1.5l5.1 2 5.1 2.2a31.6 31.6 0 0 0 5.2 1.7 20 20 0 0 0 5.4.7h2.6l12.9-2.7 12.8-2.3 12.9-1.5c4.3-.4 8.7-.6 13.1-.6h8.8a32.9 32.9 0 0 1 5.1 1l36.3 7.2H244c-.8 0-1.8 1-3.1 1.4a27.5 27.5 0 0 1-4.1.2z"/></svg>